<?xml version="1.0" encoding="UTF-8"?>
<svg xmlns="http://www.w3.org/2000/svg" xmlns:xlink="http://www.w3.org/1999/xlink" viewBox="0 0 64 64" width="64px" height="64px">
<g id="surface80803387">
<rect x="0" y="0" width="64" height="64" style="fill:rgb(14.117648%,13.725491%,15.294118%);fill-opacity:1;stroke:none;"/>
<path style=" stroke:none;fill-rule:nonzero;fill:rgb(92.54902%,94.117647%,94.509804%);fill-opacity:1;" d="M 32 10.667969 C 43.78125 10.667969 53.332031 20.21875 53.332031 32 C 53.332031 43.78125 43.78125 53.332031 32 53.332031 C 20.21875 53.332031 10.667969 43.78125 10.667969 32 C 10.667969 20.21875 20.21875 10.667969 32 10.667969 Z M 40.90625 27.96875 C 41.707031 26.730469 41.351562 25.082031 40.117188 24.28125 C 38.882812 23.480469 37.230469 23.832031 36.429688 25.066406 L 30.089844 34.855469 L 27.335938 31.726562 C 26.363281 30.621094 24.675781 30.515625 23.574219 31.484375 C 22.464844 32.460938 22.359375 34.144531 23.332031 35.25 L 28.410156 41.019531 C 28.917969 41.597656 29.648438 41.925781 30.410156 41.925781 C 30.476562 41.925781 30.542969 41.925781 30.605469 41.917969 C 31.441406 41.859375 32.195312 41.410156 32.648438 40.710938 Z M 40.90625 27.96875 "/>
</g>
</svg>
